<svg width="61" height="60" viewBox="0 0 61 60" fill="none" xmlns="http://www.w3.org/2000/svg">
<path d="M43.0544 45.4258H17.5222C17.0285 45.4258 16.6289 45.826 16.6289 46.3191C16.6289 46.8122 17.0285 47.2124 17.5222 47.2124H43.0544C43.5476 47.2124 43.9478 46.8122 43.9478 46.3191C43.9478 45.826 43.5476 45.4258 43.0544 45.4258Z" fill="#788C6E"/>
<path d="M44.052 38.1132C47.0375 34.7574 48.8569 30.3414 48.8569 25.5067V19.3113C48.8569 18.8176 48.4567 18.418 47.9636 18.418H11.7705C11.2768 18.418 10.8772 18.8176 10.8772 19.3113V20.4839C6.97042 20.9294 3.9248 24.2525 3.9248 28.2778C3.9248 32.6045 7.44448 36.1247 11.7705 36.1247C11.8563 36.1247 11.9414 36.1122 12.0236 36.0878L13.7745 35.5709C14.3403 36.4719 14.9781 37.3224 15.6821 38.1132C8.29968 39.7623 4.10466 42.5179 4.10466 45.7732C4.10466 50.1861 13.1337 54.8767 29.8668 54.8767C46.6004 54.8767 55.6295 50.1861 55.6295 45.7732C55.6295 42.5185 51.4338 39.7629 44.052 38.1132ZM12.6638 20.2046H47.0697V25.5067C47.0697 30.3938 45.018 34.8074 41.7348 37.9423C41.6782 37.984 41.6282 38.0329 41.5829 38.087C38.5087 40.9516 34.3899 42.7097 29.8662 42.7097C25.3376 42.7097 21.2147 40.948 18.1399 38.0775C18.1018 38.0334 18.0595 37.9929 18.0136 37.9572C14.7214 34.8217 12.6638 30.4015 12.6638 25.5073V20.2046ZM11.646 34.3369C8.36221 34.2702 5.71144 31.5771 5.71144 28.2778C5.71144 25.2393 7.95962 22.7238 10.8772 22.2896V25.5073C10.8772 28.5488 11.6002 31.4229 12.8764 33.9742L11.646 34.3369ZM29.8668 53.09C15.7374 53.09 5.89129 49.2339 5.89129 45.7732C5.89129 43.4285 10.4133 40.9808 17.184 39.6253C20.5489 42.6507 24.9958 44.4957 29.8662 44.4957C34.7371 44.4957 39.1847 42.6507 42.5495 39.6247C49.3208 40.982 53.8428 43.4297 53.8428 45.7732C53.8428 49.2345 43.9961 53.09 29.8668 53.09Z" fill="#788C6E"/>
<path d="M21.3103 14.2069C21.804 14.2069 22.2036 13.8073 22.2036 13.3136V4.82886C22.2036 4.33516 21.804 3.93555 21.3103 3.93555C20.8166 3.93555 20.417 4.33516 20.417 4.82886V13.3136C20.417 13.8073 20.8172 14.2069 21.3103 14.2069Z" fill="#788C6E"/>
<path d="M30.2878 14.2069C30.7816 14.2069 31.1812 13.8073 31.1812 13.3136V4.82886C31.1812 4.33516 30.7816 3.93555 30.2878 3.93555C29.7941 3.93555 29.3945 4.33516 29.3945 4.82886V13.3136C29.3945 13.8073 29.7941 14.2069 30.2878 14.2069Z" fill="#788C6E"/>
<path d="M39.2664 14.2041C39.7595 14.2041 40.1597 13.8045 40.1597 13.3108V4.82545C40.1597 4.33174 39.7595 3.93213 39.2664 3.93213C38.7733 3.93213 38.373 4.33174 38.373 4.82545V13.3108C38.373 13.8045 38.7727 14.2041 39.2664 14.2041Z" fill="#788C6E"/>
</svg>
