<svg width="60" height="60" viewBox="0 0 60 60" fill="none" xmlns="http://www.w3.org/2000/svg">
<path d="M41.4151 5.1394H16.7338C13.5665 5.1394 10.937 7.70913 10.937 10.8765V50.4382C10.937 53.6055 13.5067 56.1753 16.7338 56.1753H41.4151C44.5824 56.1753 47.2119 53.6055 47.2119 50.4382V10.8765C47.2119 7.70913 44.6422 5.1394 41.4151 5.1394ZM45.4191 50.4382C45.4191 52.6494 43.6263 54.3824 41.4151 54.3824H16.7338C14.5227 54.3824 12.7298 52.5896 12.7298 50.4382V10.8765C12.7298 8.6653 14.5227 6.93223 16.7338 6.93223H41.4151C43.6263 6.93223 45.4191 8.72506 45.4191 10.8765V50.4382Z" fill="#788C6E"/>
<path d="M36.3952 10.8167H21.6342C21.1561 10.8167 20.7378 11.235 20.7378 11.7131C20.7378 12.1912 21.1561 12.6095 21.6342 12.6095H36.3952C36.8733 12.6095 37.2916 12.1912 37.2916 11.7131C37.2916 11.235 36.8733 10.8167 36.3952 10.8167Z" fill="#788C6E"/>
<path d="M29.0447 45.0598C27.3714 45.0598 26.0566 46.4343 26.0566 48.0479C26.0566 48.8248 26.3554 49.6016 26.9531 50.1395C27.4909 50.6773 28.2678 50.9762 29.0447 50.9762C30.718 50.9762 32.0327 49.6016 32.0327 47.9881C32.0327 46.3746 30.718 45.0598 29.0447 45.0598ZM29.1045 49.2431C28.8056 49.2431 28.5068 49.1236 28.2678 48.8845C28.0288 48.6455 27.9092 48.3467 27.9092 48.0479C27.9092 47.3905 28.4471 46.8526 29.1045 46.8526C29.7618 46.8526 30.2997 47.3905 30.2997 48.0479C30.2997 48.7052 29.7618 49.2431 29.1045 49.2431Z" fill="#788C6E"/>
</svg>
