<svg width="24" height="24" viewBox="0 0 24 24" fill="none" xmlns="http://www.w3.org/2000/svg">
<path d="M22.283 21.2176L17.408 16.3426H17.3555C18.8581 14.5709 19.6175 12.2868 19.4747 9.9681C19.3319 7.64941 18.2981 5.47574 16.5895 3.90178C14.8809 2.32783 12.6298 1.47551 10.3072 1.52313C7.98462 1.57075 5.77041 2.51462 4.12774 4.15728C2.48507 5.79995 1.54121 8.01417 1.49359 10.3368C1.44597 12.6594 2.29829 14.9104 3.87224 16.619C5.4462 18.3276 7.61987 19.3614 9.93856 19.5042C12.2572 19.647 14.5413 18.8877 16.313 17.3851C16.313 17.3851 16.313 17.4226 16.313 17.4376L21.188 22.3126C21.2577 22.3829 21.3407 22.4387 21.4321 22.4767C21.5235 22.5148 21.6215 22.5344 21.7205 22.5344C21.8195 22.5344 21.9176 22.5148 22.009 22.4767C22.1004 22.4387 22.1833 22.3829 22.253 22.3126C22.3299 22.2445 22.392 22.1613 22.4355 22.0683C22.4789 21.9752 22.5028 21.8742 22.5056 21.7716C22.5084 21.6689 22.4901 21.5668 22.4518 21.4715C22.4135 21.3762 22.3561 21.2898 22.283 21.2176ZM10.5005 18.0001C9.01717 18.0001 7.56712 17.5602 6.33375 16.7361C5.10038 15.912 4.13909 14.7406 3.57143 13.3702C3.00378 11.9997 2.85525 10.4918 3.14464 9.03689C3.43403 7.58204 4.14833 6.24566 5.19723 5.19677C6.24612 4.14788 7.58249 3.43357 9.03735 3.14418C10.4922 2.85479 12.0002 3.00332 13.3707 3.57097C14.7411 4.13863 15.9124 5.09992 16.7365 6.33329C17.5607 7.56666 18.0005 9.01671 18.0005 10.5001C18.0005 11.485 17.8065 12.4603 17.4296 13.3702C17.0527 14.2801 16.5003 15.1069 15.8038 15.8034C15.1074 16.4998 14.2806 17.0523 13.3707 17.4292C12.4607 17.8061 11.4854 18.0001 10.5005 18.0001Z" fill="#2F312D"/>
</svg>
